Coordinates
version=1
nRows=17
nColumns=36
inDegrees=yes

Units are S.I. units (second, meters, Newtons, ...)
If the header above contains a line with 'inDegrees', this indicates whether rotational values are in degrees (yes) or radians (no).

endheader
time	pelvis_tilt	pelvis_list	pelvis_rotation	pelvis_tx	pelvis_ty	pelvis_tz	hip_flexion_r	hip_adduction_r	hip_rotation_r	knee_angle_r	knee_angle_r_beta	ankle_angle_r	subtalar_angle_r	mtp_angle_r	hip_flexion_l	hip_adduction_l	hip_rotation_l	knee_angle_l	knee_angle_l_beta	ankle_angle_l	subtalar_angle_l	mtp_angle_l	lumbar_extension	lumbar_bending	lumbar_rotation	arm_flex_r	arm_add_r	arm_rot_r	elbow_flex_r	pro_sup_r	arm_flex_l	arm_add_l	arm_rot_l	elbow_flex_l	pro_sup_l
      0.00000000	      6.59547941	     -2.84646702	      0.08028764	     -1.03376119	      1.24506440	     -0.06338880	     -6.69822364	      3.43191910	     -1.06711932	      6.31836808	      0.11027633	      2.66378589	    -12.64743058	     -5.67745240	     -8.03671608	     -3.35969986	     -1.03825787	      3.65101139	      0.06372217	      7.69969905	     -8.37641488	     -5.67745240	    -17.58026864	      4.51574313	      0.48414060	      7.59568117	    -12.89411930	      1.14382616	     29.01510692	     80.96972506	      3.38119028	    -10.71215979	      9.55018289	     30.49626621	     71.08668927
      0.00416670	      4.46436394	     -2.04705772	     -0.03109353	     -1.03131594	      1.24256628	     -0.06467993	     -3.94282190	      2.79519517	     -0.43142274	      7.09970098	      0.12391316	      6.25817600	     -9.83100132	     -6.75424035	     -4.93772570	     -2.03267914	     -1.25337361	      4.34568338	      0.07584648	      7.08762141	     -7.29760816	     -6.75424035	    -14.28714506	      3.83046332	      0.18903891	      6.51580603	    -12.19829290	     -3.84012253	     29.22713450	     84.04733798	      3.17589542	     -9.80375854	      3.35358498	     28.98962412	     75.12597323
      0.00833330	      3.83457751	     -1.44603128	     -0.59543585	     -1.03052239	      1.24275057	     -0.06291969	     -3.38847758	      2.03035411	     -1.10316273	      6.64338129	      0.11594888	      7.01353899	     -8.81342940	     -6.83658797	     -4.43845724	     -1.44545626	     -2.57334874	      4.10113555	      0.07157832	      7.01890780	     -6.06918054	     -6.83658797	    -13.19591025	      2.82907018	      0.40015217	      6.23804235	    -12.07474311	     -3.95480849	     29.34877726	     82.39927923	      3.26647701	    -10.68451159	      4.66811809	     28.58920038	     74.38359875
      0.01250000	      4.34183939	     -1.19136820	     -0.80313505	     -1.02732174	      1.23960734	     -0.06008588	     -4.21768675	      1.80017369	     -1.29269061	      6.38493759	      0.11143818	      7.80262478	     -8.06701696	     -6.87252152	     -5.62159643	     -1.19419797	     -3.07211795	      3.37477103	      0.05890087	      7.00722162	     -5.91303376	     -6.87252152	    -13.55484558	      2.27318369	      1.06311953	      5.45602402	    -12.04185595	     -4.53338558	     30.22447516	     79.94209437	      3.66263730	    -11.83881567	      8.32030105	     28.43885972	     73.81607905
      0.01666670	      4.58381526	     -1.05344790	     -0.93624275	     -1.02854850	      1.24026683	     -0.06067301	     -4.67111068	      1.70455502	     -1.42647621	      6.05232321	      0.10563297	      8.25044261	     -7.98969306	     -6.90424998	     -6.24769627	     -1.00862788	     -3.15359517	      2.88346272	      0.05032592	      7.14855544	     -6.00017028	     -6.90424998	    -13.79051894	      2.03890333	      1.19384720	      5.26724698	    -11.99882113	     -4.54760952	     30.64887453	     79.25708086	      3.61737839	    -12.16761100	      8.66158999	     28.75950065	     73.41511640
      0.02083330	      4.74249635	     -0.98155729	     -0.96235705	     -1.02781666	      1.24166842	     -0.05966460	     -5.08978955	      1.68880203	     -1.40056495	      5.53583841	      0.09661861	      8.44556867	     -8.05947571	     -6.90057975	     -6.56767614	     -0.96179018	     -3.22464148	      2.65643922	      0.04636361	      7.29503055	     -5.89484417	     -6.90057975	    -13.84531120	      1.85974448	      1.23985362	      5.17574462	    -11.94350311	     -4.52178045	     30.65170789	     79.10811249	      3.73396601	    -12.31395423	      8.80407919	     28.70197154	     73.31741701
      0.02500000	      4.96309823	     -0.92666764	     -0.97839811	     -1.02780372	      1.24434814	     -0.05986407	     -5.59046966	      1.66880455	     -1.53253741	      5.07115468	      0.08850835	      8.60825948	     -7.62521358	     -7.15827169	     -6.98719542	     -0.89752852	     -3.04865263	      2.29957694	      0.04013519	      7.20294757	     -6.00367938	     -7.15827169	    -14.12439376	      1.74530770	      1.73762942	      4.73941364	    -12.04753745	     -4.24474971	     31.25335277	     74.78024688	      4.47576061	    -12.64013444	     11.97994414	     28.40266101	     70.10757938
      0.02916670	      5.09972847	     -0.88638117	     -0.95089984	     -1.02779507	      1.24385765	     -0.06034927	     -5.99773891	      1.67702809	     -1.60934991	      4.69325447	      0.08191274	      8.56884508	     -7.53217355	     -7.22804476	     -7.21433194	     -0.86819468	     -2.99480645	      2.16551837	      0.03779543	      7.07639136	     -6.15924845	     -7.22804476	    -14.28692406	      1.67328575	      1.73977387	      4.77199914	    -12.01656913	     -4.07118706	     31.28773133	     73.42217072	      4.65681712	    -12.60076611	     12.05961499	     28.39494580	     69.10140256
      0.03333330	      5.15270632	     -0.85309337	     -0.95524872	     -1.02822753	      1.24250860	     -0.06010168	     -6.22152587	      1.70543030	     -1.56665797	      4.43425301	      0.07739231	      8.56918069	     -7.35809347	     -7.28902174	     -7.29769375	     -0.82657500	     -3.04537761	      2.07416887	      0.03620108	      7.15012419	     -5.84366998	     -7.28902174	    -14.36043069	      1.60384219	      1.77350843	      4.76635436	    -11.96900899	     -3.94296066	     31.34084243	     72.06855812	      4.79489910	    -12.56048394	     12.12600140	     28.42567783	     68.10759968
      0.03750000	      5.08790013	     -0.87052042	     -0.91583801	     -1.02894002	      1.24064180	     -0.05955487	     -6.25899350	      1.77528568	     -1.39757755	      4.26177227	      0.07438196	      8.39701282	     -7.78811691	     -7.34375292	     -7.17019782	     -0.85071911	     -2.79735783	      2.05235970	      0.03582043	      6.96203695	     -6.26981759	     -7.34375292	    -14.31596684	      1.59018150	      1.78946743	      4.69918620	    -12.14911377	     -3.23319157	     31.47683892	     71.29694558	      5.02960457	    -12.63202114	     12.73186208	     28.34278486	     67.51644480
      0.04166670	      5.08780386	     -0.87559102	     -0.90794058	     -1.02840015	      1.24128944	     -0.05982032	     -6.31995165	      1.79842240	     -1.39036273	      4.19649810	      0.07324271	      8.32992320	     -7.98343829	     -7.37430966	     -7.16668696	     -0.86950536	     -2.82923521	      2.01146343	      0.03510666	      6.89821135	     -6.18555184	     -7.37430966	    -14.36615202	      1.57559817	      1.76148740	      4.64081494	    -12.16392723	     -3.17757117	     31.68607836	     70.47900493	      5.05806722	    -12.63024739	     12.70490426	     28.51761137	     66.90223396
      0.04583330	      5.00160207	     -0.90442156	     -0.91234832	     -1.02912453	      1.24130054	     -0.05968046	     -6.25256690	      1.85124269	     -1.33491694	      4.11805247	      0.07187357	      8.29840280	     -8.13181081	     -7.44089433	     -7.03776186	     -0.92105740	     -2.79417303	      2.00130986	      0.03492945	      6.76216244	     -6.34446078	     -7.44089433	    -14.32409165	      1.59263491	      1.85649526	      4.59038365	    -12.18357875	     -3.27231208	     31.73880414	     72.27098699	      5.17710056	    -12.63176874	     12.72408357	     28.58139176	     67.91550946
      0.05000000	      4.95809255	     -0.90727541	     -0.88670894	     -1.02893382	      1.24299565	     -0.05985267	     -6.24488631	      1.85798062	     -1.48881923	      4.01493146	      0.07007377	      8.20708533	     -8.20515855	     -7.46486590	     -6.99229146	     -0.93922707	     -2.76946426	      1.98627000	      0.03466695	      6.59013966	     -6.40612215	     -7.46486590	    -14.32034484	      1.60393190	      1.82456435	      4.63022915	    -12.26261926	     -2.58843066	     31.80839110	     69.93567756	      5.25654162	    -12.64046874	     12.96635104	     28.65453693	     66.36904665
      0.05416670	      4.84797654	     -0.91004851	     -0.89364408	     -1.02931150	      1.23888344	     -0.05909383	     -6.12859274	      1.91176951	     -1.17336057	      3.87907427	      0.06770262	      8.03793487	     -8.73709430	     -7.46552785	     -6.85485193	     -0.97004045	     -3.03708687	      2.05016835	      0.03578219	      6.91170839	     -5.82168068	     -7.46552785	    -14.26042255	      1.58934254	      1.85196517	      4.61852396	    -12.29956719	     -2.37520012	     31.96854914	     70.00646772	      5.27307318	    -12.69859964	     12.90259619	     28.83573105	     66.46271948
      0.05833330	      4.75708593	     -0.92929956	     -0.84639121	     -1.02861700	      1.23977133	     -0.05946434	     -6.06835590	      1.93690836	     -1.35218116	      3.76265550	      0.06567073	      8.17881412	     -8.51429270	     -7.47387685	     -6.77616639	     -1.00150713	     -2.82703486	      2.04286665	      0.03565475	      6.61263274	     -6.23465238	     -7.47387685	    -14.14281725	      1.62053556	      1.82140113	      4.68983414	    -12.30949501	     -2.07841056	     31.87179718	     69.07682563	      5.34004845	    -12.66815007	     12.94726265	     28.79424747	     65.89065753
      0.06250000	      4.68202442	     -0.95618219	     -0.87270179	     -1.02790641	      1.23989087	     -0.05874884	     -5.99389763	      1.96475802	     -1.27814853	      3.67661048	      0.06416896	      8.05808982	     -8.70240086	     -7.47923588	     -6.75824016	     -1.03374898	     -2.85382453	      1.99485973	      0.03481687	      6.57976520	     -6.13884361	     -7.47923588	    -13.98343647	      1.60523034	      1.87089290	      4.61798457	    -12.32303515	     -1.76127758	     31.90294029	     68.67993461	      5.30824115	    -12.71355451	     12.95663940	     28.92355242	     65.65874271
      0.06666670	      4.66377027	     -0.95500184	     -0.87667570	     -1.02801290	      1.23977374	     -0.05927846	     -5.97886669	      1.95799471	     -1.42755346	      3.58490238	      0.06256835	      8.21076735	     -8.45127169	     -7.48194965	     -6.79443975	     -1.02581960	     -2.92862229	      1.95349412	      0.03409490	      6.65580355	     -5.90984511	     -7.48194965	    -13.97242716	      1.57980606	      1.86411154	      4.59587414	    -12.28785472	     -1.79880027	     31.97455062	     68.18059424	      5.24652002	    -12.72349971	     12.81586490	     29.09801651	     65.32344183
